<svg width="71" height="42" viewBox="0 0 71 42" fill="none" xmlns="http://www.w3.org/2000/svg">
<g clip-path="url(#clip0_555_8)">
<path d="M12.7417 0.0915567C7.60321 0.140124 7.3118 0.159551 6.61243 0.353821C3.36812 1.26689 0.75519 4.05466 0.065531 7.32812C-0.0801716 8.02749 -0.0995986 9.10569 -0.0995986 18.2558C-0.0995986 29.3195 -0.109312 29.0572 0.454071 30.5628C1.32829 32.8649 3.36812 34.8076 5.89363 35.711C7.10782 36.1481 6.49587 36.1287 27.0011 36.1287C39.3567 36.1287 46.4184 36.0995 46.4766 36.0412C46.6029 35.915 46.3212 34.895 45.9133 34.0403C45.4082 32.9912 44.8933 32.2433 44.1066 31.4759C42.5038 29.8926 40.8914 29.1349 38.735 28.9407C38.0939 28.8824 32.2561 28.8532 24.3979 28.8532C17.103 28.8532 11.0029 28.8241 10.8475 28.7853C10.3521 28.6687 9.70133 28.2899 9.34193 27.9207L9.00195 27.5711L8.97281 24.9873C8.95339 23.2291 8.97281 22.3841 9.05052 22.3355C9.1088 22.3063 14.6455 22.2675 21.3478 22.2578C32.2561 22.2481 33.5771 22.2286 33.7811 22.0926C34.1794 21.8401 34.0919 21.471 33.4411 20.6648C32.8583 19.9362 27.953 14.5161 27.681 14.3024C27.5645 14.2053 25.4761 14.1761 18.2201 14.1567L8.90482 14.1276V11.7478C8.90482 9.49423 8.91453 9.34852 9.11852 8.97941C9.40992 8.42574 9.8956 8.00806 10.4881 7.77494C11.0029 7.57095 11.1292 7.57095 19.3371 7.57095H27.6713L28.3415 7.91093C29.274 8.37717 29.5946 8.67829 32.1298 11.5535C32.6738 12.1654 33.8491 13.5059 34.7525 14.5258C35.6558 15.5457 36.8311 16.8765 37.3654 17.4787C37.8996 18.0907 38.5601 18.8289 38.8224 19.13C39.0944 19.4311 40.1143 20.6065 41.1051 21.7527C42.0959 22.8892 43.378 24.3753 43.9609 25.0456C44.5437 25.7158 45.243 26.5026 45.515 26.7843C46.2727 27.5808 46.972 27.8722 47.6034 27.6682C47.8657 27.5808 50.6826 25.6381 51.3528 25.0844C51.4111 25.0358 52.1979 24.4627 53.1013 23.8022C54.0143 23.1514 54.8788 22.52 55.0342 22.4035C55.4811 22.0538 59.0556 19.47 59.9493 18.8386C60.4058 18.5181 60.9789 18.1004 61.2412 17.9061L61.6977 17.5564V26.794C61.6977 33.6809 61.7269 36.0898 61.8143 36.2744C61.9211 36.5172 62.4942 36.8766 65.6317 38.7027C66.1174 38.9844 67.3704 39.7227 68.4195 40.3443C69.4685 40.966 70.4301 41.5099 70.5564 41.5585C70.877 41.6848 71.0907 41.5294 71.2169 41.102C71.3626 40.5774 71.3529 1.58744 71.2072 1.16976C71.0227 0.645227 70.6244 0.548091 70.0222 0.868637C69.6822 1.05319 66.0396 3.56899 64.9517 4.3655C64.6895 4.56948 64.029 5.03573 63.4947 5.40484C62.9605 5.77395 62.2805 6.24992 61.9891 6.4539C61.6977 6.65788 61.0858 7.08528 60.6292 7.39611C60.1727 7.71666 59.3665 8.28004 58.8322 8.64915C58.298 9.02798 57.754 9.40681 57.618 9.49423C57.482 9.58165 56.8507 10.0285 56.2096 10.4753C55.044 11.3009 54.16 11.9129 51.7899 13.5448C51.1003 14.0207 50.5272 14.4481 50.5272 14.487C50.5272 14.5258 50.4883 14.5647 50.43 14.5647C50.3815 14.5647 49.9929 14.8075 49.5655 15.0989C49.1381 15.3903 48.769 15.6332 48.7496 15.6332C48.6816 15.6332 47.5646 14.4578 45.4276 12.1363C44.3688 10.9901 43.0186 9.52337 42.4261 8.88228C41.8336 8.24119 41.1342 7.48353 40.8622 7.18241C40.6 6.89101 40.3571 6.62874 40.328 6.5996C40.2989 6.57046 39.9492 6.20135 39.5509 5.77395C36.734 2.76277 36.1318 2.18967 35.0536 1.4903C34.0045 0.810356 33.0526 0.402389 31.9744 0.178978C31.3624 0.0527027 21.5615 0.0138487 12.7417 0.0915567Z" fill="#AD90BE"/>
</g>
<defs>
<clipPath id="clip0_555_8">
<rect width="71" height="41.6881" fill="white"/>
</clipPath>
</defs>
</svg>
